<?xml version="1.0" standalone="no"?>
<!DOCTYPE svg PUBLIC "-//W3C//DTD SVG 20010904//EN"
 "http://www.w3.org/TR/2001/REC-SVG-20010904/DTD/svg10.dtd">
<svg version="1.0" xmlns="http://www.w3.org/2000/svg"
 width="501.000000pt" height="517.000000pt" viewBox="0 0 501.000000 517.000000"
 preserveAspectRatio="xMidYMid meet">

<g transform="translate(0.000000,517.000000) scale(0.100000,-0.100000)"
fill="#000000" stroke="none">
<path d="M852 4027 c-18 -5 -53 -28 -77 -49 -144 -127 -48 -358 149 -358 61 0
99 14 131 50 11 12 29 26 40 30 30 11 51 132 34 190 -32 107 -166 173 -277
137z"/>
<path d="M4052 4025 c-88 -38 -119 -80 -128 -173 -8 -77 8 -124 61 -177 75
-76 182 -81 267 -14 20 16 41 29 47 29 18 0 29 33 36 111 6 65 4 81 -13 115
-53 103 -172 151 -270 109z"/>
<path d="M2468 3893 l-1208 -3 0 -68 0 -67 1262 5 c695 3 1264 7 1266 8 1 1 2
29 2 61 0 67 -6 73 -73 69 -23 -2 -585 -4 -1249 -5z"/>
<path d="M903 3493 l-33 -4 0 -850 0 -849 60 0 60 0 0 855 0 855 -27 -2 c-16
0 -43 -3 -60 -5z"/>
<path d="M4078 3353 c-4 -118 -3 -1053 1 -1470 l1 -83 60 0 60 0 0 813 c0 446
-3 829 -6 850 l-7 37 -52 0 -52 0 -5 -147z"/>
<path d="M816 1628 c-102 -67 -131 -172 -74 -270 54 -92 121 -128 210 -114 62
10 92 32 142 109 34 51 46 79 46 107 0 110 -101 200 -225 200 -41 0 -61 -6
-99 -32z"/>
<path d="M4022 1640 c-39 -24 -87 -97 -96 -146 -15 -80 55 -209 131 -240 74
-31 169 -2 220 67 71 96 79 153 36 240 -22 43 -37 59 -73 76 -61 30 -171 32
-218 3z"/>
<path d="M1266 1429 c4 -35 8 -65 9 -67 1 -1 567 -3 1258 -5 l1257 -2 0 62 0
62 -1227 1 c-676 0 -1245 3 -1266 7 l-38 6 7 -64z"/>
<path d="M857 956 c-66 -24 -120 -74 -154 -140 -22 -43 -24 -58 -19 -105 12
-102 69 -185 151 -222 43 -20 129 -25 169 -10 26 10 116 95 116 110 0 5 -14
21 -32 36 l-32 27 -26 -29 c-45 -54 -80 -64 -135 -37 -39 18 -105 82 -105 100
0 7 -8 18 -17 24 -17 10 -17 10 0 20 9 6 17 21 17 34 0 13 5 37 11 53 10 29
14 31 77 39 88 11 111 7 150 -23 l33 -25 34 27 c19 14 35 29 35 34 0 12 -53
58 -89 76 -46 23 -137 29 -184 11z"/>
<path d="M1395 952 c-68 -22 -149 -101 -165 -160 -21 -79 17 -191 85 -250 50
-45 90 -63 150 -69 71 -7 110 8 176 70 45 41 60 63 73 106 32 110 17 190 -48
253 -65 63 -172 83 -271 50z m165 -111 c37 -26 70 -80 70 -113 0 -69 -72 -148
-134 -148 -56 0 -133 55 -162 115 -14 30 -14 38 -3 52 10 12 10 14 2 9 -17 -9
-16 -1 1 32 29 57 85 84 156 76 25 -3 56 -13 70 -23z"/>
<path d="M1857 808 c2 -90 5 -200 9 -244 l6 -82 46 1 47 1 -3 115 c-6 196 -14
193 112 45 128 -151 131 -154 168 -154 l27 0 3 235 3 235 -43 6 c-24 4 -46 3
-50 -1 -4 -3 -9 -67 -10 -141 l-4 -134 -41 55 c-23 29 -71 90 -107 134 -60 74
-68 80 -102 81 -20 0 -42 2 -50 5 -10 4 -13 -25 -11 -157z"/>
<path d="M2430 903 c1 -38 7 -144 14 -237 15 -182 16 -186 73 -186 l33 0 -5
78 c-3 42 -8 107 -10 145 -3 37 -3 67 0 67 2 0 54 -58 114 -128 117 -137 145
-162 186 -162 l25 0 0 148 c0 82 -3 190 -6 240 l-7 92 -45 0 -44 0 4 -134 c3
-111 1 -133 -10 -124 -7 6 -60 66 -118 133 -104 123 -121 135 -185 135 -17 0
-19 -8 -19 -67z"/>
<path d="M3006 723 c4 -131 9 -240 11 -243 3 -3 71 -7 153 -8 l149 -4 6 35
c14 70 12 72 -108 75 l-107 3 0 55 0 56 88 -3 87 -4 3 48 c4 54 6 53 -97 36
-35 -5 -67 -6 -71 -2 -4 4 -10 27 -14 50 l-6 42 110 -6 110 -6 0 50 0 50 -61
7 c-34 3 -106 6 -160 6 l-99 0 6 -237z"/>
<path d="M3599 941 c-109 -43 -149 -102 -149 -222 0 -153 84 -249 219 -249 27
0 69 8 93 18 24 11 48 17 53 16 6 -2 19 14 29 37 l20 40 -33 32 -32 32 -28
-32 c-23 -27 -35 -33 -68 -33 -50 0 -101 20 -129 52 -28 30 -54 82 -54 107 0
29 48 81 95 102 61 28 108 25 148 -11 43 -37 56 -37 91 -1 l27 28 -26 31 c-57
68 -162 90 -256 53z"/>
<path d="M3980 908 l0 -53 67 0 68 0 5 -182 c3 -100 7 -183 10 -186 3 -2 27
-7 54 -11 l49 -6 -5 194 -4 195 68 -6 68 -6 0 57 0 56 -190 0 -190 0 0 -52z"/>
<path d="M1675 539 c-4 -6 -5 -12 -2 -15 2 -3 7 2 10 11 7 17 1 20 -8 4z"/>
</g>
</svg>
